<?xml version="1.0" encoding="iso-8859-1"?>
<!-- Generator: Adobe Illustrator 16.0.0, SVG Export Plug-In . SVG Version: 6.00 Build 0)  -->
<!DOCTYPE svg PUBLIC "-//W3C//DTD SVG 1.1//EN" "http://www.w3.org/Graphics/SVG/1.1/DTD/svg11.dtd">
<svg version="1.1" id="&#x30EC;&#x30A4;&#x30E4;&#x30FC;_1"
	 xmlns="http://www.w3.org/2000/svg" xmlns:xlink="http://www.w3.org/1999/xlink" x="0px" y="0px" width="229.979px"
	 height="85.456px" viewBox="0 0 229.979 85.456" style="enable-background:new 0 0 229.979 85.456;" xml:space="preserve">
<g>
	<path style="fill:#1F1E1D;" d="M-2039.133,14.979c0,2.933-2.4,5.333-5.333,5.333h-29.333c-2.934,0-5.333-2.4-5.333-5.333v-29.333
		c0-2.934,2.4-5.333,5.333-5.333h29.333c2.933,0,5.333,2.4,5.333,5.333V14.979z"/>
</g>
<text transform="matrix(1 0 0 1.03 -2075.9243 0.3115)" style="fill:#FFFFFF; font-family:'Code-Bold'; font-size:20;">BRS</text>
<text transform="matrix(1 0 0 1.03 -1990.3418 12.6895)" style="fill:#2D2A29; font-family:'Code-Bold'; font-size:33.557; letter-spacing:1;">R</text>
<text transform="matrix(1 0 0 1.03 -1819.5488 8.5947)" style="fill:#2D2A29; font-family:'KozGoPro-Heavy-90ms-RKSJ-H'; font-size:23; letter-spacing:1;">&#x672C;</text>
<text transform="matrix(1 0 0 1.03 -1732.6016 8.5947)" style="fill:#2D2A29; font-family:'KozGoPro-Heavy-90ms-RKSJ-H'; font-size:23; letter-spacing:1;">&#x507D;</text>
<text transform="matrix(1 0 0 1.03 -1641.2783 13.6162)" style="fill:#2D2A29; font-family:'Impact'; font-size:31.961; letter-spacing:1;">1</text>
<text transform="matrix(1 0 0 1.03 -1563.5742 6.542)" style="fill:#2D2A29; font-family:'Code-Bold'; font-size:16.0644;">ORG</text>
<path style="fill:none;stroke:#2D2A29;stroke-width:3.1563;stroke-miterlimit:10;" d="M-1528.932,0.311
	c0,9.984-8.095,18.079-18.079,18.079s-18.079-8.095-18.079-18.079c0-9.982,8.095-18.076,18.079-18.076
	S-1528.932-9.671-1528.932,0.311z"/>
<path style="fill:none;stroke:#2D2A29;stroke-width:3.1563;stroke-miterlimit:10;" d="M-1615.762,0.453
	c0,9.984-8.094,18.079-18.078,18.079s-18.079-8.095-18.079-18.079c0-9.982,8.095-18.076,18.079-18.076
	S-1615.762-9.529-1615.762,0.453z"/>
<circle style="fill:none;stroke:#2D2A29;stroke-width:3.1794;stroke-miterlimit:10;" cx="-1982.113" cy="0.376" r="18.211"/>
<text transform="matrix(1 0 0 1.03 -1902.0371 12.6895)" style="fill:#2D2A29; font-family:'Code-Bold'; font-size:33.557; letter-spacing:1;">F</text>
<circle style="fill:none;stroke:#2D2A29;stroke-width:3.1794;stroke-miterlimit:10;" cx="-1895.105" cy="0.376" r="18.211"/>
<circle style="fill:none;stroke:#2D2A29;stroke-width:3.1794;stroke-miterlimit:10;" cx="-1895.105" cy="0.376" r="18.211"/>
<circle style="fill:none;stroke:#2D2A29;stroke-width:3.1794;stroke-miterlimit:10;" cx="-1895.117" cy="0.376" r="18.211"/>
<circle style="fill:none;stroke:#2D2A29;stroke-width:3.1794;stroke-miterlimit:10;" cx="-1808.052" cy="0.312" r="18.211"/>
<circle style="fill:none;stroke:#2D2A29;stroke-width:3.1794;stroke-miterlimit:10;" cx="-1721.056" cy="0.312" r="18.211"/>
<g>
	<path style="fill:#1F1E1D;" d="M-1370.221,84.332c0,8.789-7.191,15.98-15.98,15.98h-87.896c-8.789,0-15.98-7.191-15.98-15.98
		V-3.564c0-8.789,7.191-15.98,15.98-15.98h87.896c8.789,0,15.98,7.191,15.98,15.98V84.332z"/>
</g>
<text transform="matrix(1 0 0 1.03 -1437.248 84.1191)" style="fill:#FFFFFF; font-family:'Code-Bold'; font-size:38.9537;">001</text>
<text transform="matrix(1 0 0 1.03 -1480.4629 40.3809)" style="fill:#FFFFFF; font-family:'Code-Bold'; font-size:59.9287; letter-spacing:2;">BRS</text>
<text transform="matrix(1 0 0 1.03 -1481.1982 84.1191)" style="fill:#FFFFFF; font-family:'Code-Bold'; font-size:22;">ver.</text>
<text transform="matrix(1 0 0 1.03 -2063.7319 16.3379)" style="fill:#FFFFFF; font-family:'Code-Bold'; font-size:15.7804;">001</text>
<text transform="matrix(1 0 0 1.03 -2076.3442 16.0146)" style="fill:#FFFFFF; font-family:'Code-Bold'; font-size:6;">ver.</text>
<text transform="matrix(1 0 0 1.03 -1297.4121 77.0674)" style="fill:#2D2A29; font-family:'Code-Bold'; font-size:100.164; letter-spacing:4;">R</text>
<text transform="matrix(1 0 0 1.03 -993.373 65.2725)" style="fill:#2D2A29; font-family:'KozGoPro-Heavy-90ms-RKSJ-H'; font-size:68.6526; letter-spacing:3;">&#x672C;</text>
<text transform="matrix(1 0 0 1.03 -836.5088 65.2725)" style="fill:#2D2A29; font-family:'KozGoPro-Heavy-90ms-RKSJ-H'; font-size:68.6526; letter-spacing:3;">&#x507D;</text>
<text transform="matrix(1 0 0 1.03 -667.2441 79.833)" style="fill:#2D2A29; font-family:'Impact'; font-size:95.4001; letter-spacing:4;">1</text>
<text transform="matrix(1 0 0 1.03 -537.4717 59.1416)" style="fill:#2D2A29; font-family:'Code-Bold'; font-size:47.9505; letter-spacing:2;">ORG</text>
<path style="fill:none;stroke:#2D2A29;stroke-width:9.4213;stroke-miterlimit:10;" d="M-434.067,40.541
	c0,29.803-24.161,53.966-53.964,53.966c-29.802,0-53.964-24.163-53.964-53.966c0-29.792,24.162-53.955,53.964-53.955
	C-458.229-13.414-434.067,10.749-434.067,40.541z"/>
<path style="fill:none;stroke:#2D2A29;stroke-width:9.4213;stroke-miterlimit:10;" d="M-591.077,40.542
	c0,29.804-24.159,53.964-53.961,53.964s-53.964-24.16-53.964-53.964c0-29.793,24.162-53.955,53.964-53.955
	S-591.077,10.749-591.077,40.542z"/>
<circle style="fill:none;stroke:#2D2A29;stroke-width:9.4902;stroke-miterlimit:10;" cx="-1272.849" cy="40.313" r="54.357"/>
<text transform="matrix(1 0 0 1.03 -1136.7363 77.1396)" style="fill:#2D2A29; font-family:'Code-Bold'; font-size:100.164; letter-spacing:4;">F</text>
<circle style="fill:none;stroke:#2D2A29;stroke-width:9.4902;stroke-miterlimit:10;" cx="-1116.044" cy="40.385" r="54.357"/>
<circle style="fill:none;stroke:#2D2A29;stroke-width:9.4902;stroke-miterlimit:10;" cx="-1116.044" cy="40.385" r="54.357"/>
<circle style="fill:none;stroke:#2D2A29;stroke-width:9.4902;stroke-miterlimit:10;" cx="-1116.08" cy="40.385" r="54.357"/>
<circle style="fill:none;stroke:#2D2A29;stroke-width:9.4902;stroke-miterlimit:10;" cx="-959.055" cy="40.548" r="54.358"/>
<text transform="matrix(1 0 0 1.03 -993.2734 65.2725)" style="fill:#2D2A29; font-family:'KozGoPro-Heavy-90ms-RKSJ-H'; font-size:68.6526; letter-spacing:3;">&#x672C;</text>
<circle style="fill:none;stroke:#2D2A29;stroke-width:9.4902;stroke-miterlimit:10;" cx="-958.956" cy="40.548" r="54.358"/>
<text transform="matrix(1 0 0 1.03 -993.1729 65.2725)" style="fill:#2D2A29; font-family:'KozGoPro-Heavy-90ms-RKSJ-H'; font-size:68.6526; letter-spacing:3;">&#x672C;</text>
<circle style="fill:none;stroke:#2D2A29;stroke-width:9.4902;stroke-miterlimit:10;" cx="-958.856" cy="40.548" r="54.358"/>
<circle style="fill:none;stroke:#2D2A29;stroke-width:9.4902;stroke-miterlimit:10;" cx="-802.047" cy="40.548" r="54.357"/>
<g>
	<path style="fill:#1F1E1D;" d="M-271.095,84.494c0,8.789-7.191,15.98-15.981,15.98h-87.895c-8.79,0-15.981-7.191-15.981-15.98
		V-3.401c0-8.79,7.191-15.981,15.981-15.981h87.895c8.79,0,15.981,7.191,15.981,15.981V84.494z"/>
</g>
<text transform="matrix(1 0 0 1.03 -343.2256 84.2813)" style="fill:#FFFFFF; font-family:'Code-Bold'; font-size:38.9537;">002</text>
<text transform="matrix(1 0 0 1.03 -381.3369 40.543)" style="fill:#FFFFFF; font-family:'Code-Bold'; font-size:59.9287; letter-spacing:2;">BRS</text>
<text transform="matrix(1 0 0 1.03 -382.0723 84.2813)" style="fill:#FFFFFF; font-family:'Code-Bold'; font-size:22;">ver.</text>
<g>
	<path style="fill:#293133;" d="M-37.079,78.475c0,12.1-9.9,22-22,22h-75.857c-12.1,0-22-9.9-22-22V2.617c0-12.1,9.9-22,22-22
		h75.857c12.1,0,22,9.9,22,22V78.475z"/>
</g>
<text transform="matrix(1 0 0 1.03 -105.6582 79.25)" style="fill:#FFFFFF; font-family:'Gidole-Regular'; font-size:37.3747; letter-spacing:-1;">002</text>
<text transform="matrix(1 0 0 1.03 -148.6631 39.6592)"><tspan x="0" y="0" style="fill:#FFFFFF; font-family:'Montserrat-SemiBold'; font-size:47.6385;">B</tspan><tspan x="35.489" y="0" style="fill:#FFFFFF; font-family:'Montserrat-SemiBold'; font-size:47.6385;">RS</tspan></text>
<g>
	<path style="fill:#293133;" d="M71.668,61.718c0,14.243-10.83,22.551-31.571,22.551H0V1.186h37.793
		c19.357,0,29.727,8.427,29.727,21.602c0,8.547-4.147,14.837-10.369,18.278C65.793,43.914,71.668,50.917,71.668,61.718z
		 M14.979,13.293v22.906h21.202c10.369,0,16.245-3.798,16.245-11.394c0-7.715-5.876-11.513-16.245-11.513H14.979z M56.573,60.173
		c0-8.307-6.104-11.986-17.397-11.986H14.979v23.976h24.196C50.469,72.162,56.573,68.482,56.573,60.173z"/>
	<path style="fill:#293133;" d="M138.608,84.269l-16.476-24.331c-1.039,0.117-2.076,0.117-3.113,0.117h-18.203v24.214H85.838V1.186
		h33.182c21.203,0,34.337,11.157,34.337,29.553c0,12.582-6.222,21.839-17.167,26.232l18.552,27.298H138.608z M118.33,14.242h-17.514
		v33.112h17.514c13.135,0,19.934-6.171,19.934-16.616C138.264,20.294,131.465,14.242,118.33,14.242z"/>
	<path style="fill:#293133;" d="M165.57,75.483l5.188-11.986c6.449,5.34,16.706,9.138,26.615,9.138
		c12.557,0,17.857-4.627,17.857-10.799c0-17.922-47.932-6.172-47.932-37.03C167.299,11.394,177.668,0,199.791,0
		c9.679,0,19.818,2.609,26.846,7.357l-4.724,11.987c-7.258-4.392-15.209-6.529-22.235-6.529c-12.445,0-17.514,4.986-17.514,11.276
		c0,17.687,47.815,6.172,47.815,36.677c0,13.294-10.484,24.688-32.606,24.688C184.813,85.456,172.256,81.42,165.57,75.483z"/>
</g>
<text transform="matrix(1 0 0 1.03 -145.4766 79.5742)" style="fill:#FFFFFF; font-family:'Gidole-Regular'; font-size:24.1448;">ver.</text>
<g>
	<path style="fill:#1F1E1D;" d="M-194.016,14.979c0,2.933-2.4,5.333-5.333,5.333h-29.333c-2.934,0-5.334-2.4-5.334-5.333v-29.333
		c0-2.934,2.4-5.333,5.334-5.333h29.333c2.933,0,5.333,2.4,5.333,5.333V14.979z"/>
</g>
<text transform="matrix(1 0 0 1.03 -230.8066 0.3115)" style="fill:#FFFFFF; font-family:'Code-Bold'; font-size:20;">BRS</text>
<text transform="matrix(1 0 0 1.03 -220.6816 16.3379)" style="fill:#FFFFFF; font-family:'Code-Bold'; font-size:15.7804;">002</text>
<text transform="matrix(1 0 0 1.03 -231.2266 16.0146)" style="fill:#FFFFFF; font-family:'Code-Bold'; font-size:6;">ver.</text>
</svg>
